<svg width="178" height="117" viewBox="0 0 178 117" fill="none" xmlns="http://www.w3.org/2000/svg">
<g clip-path="url(#clip0_71_220)">
<path d="M40.9804 60.9403C41.1734 54.503 40.1396 48.1071 43.1515 42.111C45.4052 37.6173 48.6376 34.1368 53.1588 31.7177C55.4332 35.7151 58.9827 36.8316 63.2765 36.2596C62.8009 36.1493 62.3184 36.0597 61.8498 35.9287C57.2183 34.6261 54.3856 30.2703 55.0197 25.4458C55.6124 20.9246 59.5202 17.5475 64.3309 17.3889C72.5808 17.1201 79.2455 12.4955 81.9472 5.05893C82.5193 3.48064 82.7949 1.79896 83.236 0.0759277H86.1032C86.6132 7.5332 86.0411 14.7768 81.8852 21.2416C78.5632 26.4107 77.0056 31.9658 77.1296 38.1136C77.2743 45.178 77.1641 52.2424 77.1641 59.3068C77.1641 59.7893 77.1641 60.2717 77.1641 60.9265C75.2618 60.9265 73.4837 60.9747 71.7193 60.8782C71.4367 60.8644 71.0645 60.2579 70.9405 59.8651C69.3277 54.5788 65.2889 51.243 59.8855 50.7813C54.2133 50.2988 48.8099 54.0481 47.2454 59.6721C46.9559 60.7059 46.5493 61.0161 45.5223 60.954C44.0612 60.8645 42.5932 60.9334 40.9804 60.9334V60.9403Z" fill="white"/>
<path d="M100.949 60.7608C100.949 60.2164 100.949 59.6926 100.949 59.1619C100.949 51.6495 100.928 44.1439 100.956 36.6315C100.976 31.5382 99.7013 26.7965 96.9651 22.5165C93.4364 17.0028 91.7202 11.0273 91.8994 4.49356C91.9408 3.06689 91.8994 1.64022 91.8994 0.0205672C92.7816 0.0205672 93.6225 -0.0690304 94.4219 0.068812C94.7183 0.117057 95.0905 0.682211 95.1456 1.05439C95.8831 6.22348 98.316 10.4001 102.431 13.5705C105.759 16.1343 109.564 17.3336 113.768 17.4094C118.027 17.4921 121.391 19.9939 122.693 23.888C124.458 29.1742 121.17 34.9154 115.725 36.0595C115.429 36.1215 115.126 36.1629 114.733 36.2318C117.807 37.5344 122.094 35.646 124.975 31.7519C128.124 33.344 130.709 35.6184 132.777 38.4786C135.63 42.4278 137.132 46.8456 137.126 51.7459C137.126 54.7371 137.126 57.7283 137.126 60.9194C135.23 60.9194 133.418 60.9538 131.619 60.8711C131.384 60.8573 131.074 60.2646 130.964 59.8924C129.427 54.6544 125.299 51.2359 119.93 50.781C114.278 50.3055 108.909 53.9652 107.31 59.5134C106.966 60.7126 106.469 61.0572 105.305 60.9538C104.016 60.8435 102.713 60.9194 101.417 60.9056C101.335 60.9056 101.252 60.8573 100.942 60.754L100.949 60.7608Z" fill="white"/>
</g>
<g clip-path="url(#clip1_71_220)">
<path d="M16.4374 87.3647C16.0928 86.6686 15.7896 86.1723 15.5208 85.876C15.252 85.5796 14.9418 85.428 14.6041 85.428C14.1424 85.428 13.6186 85.5589 13.0327 85.8277C12.4469 86.0896 11.8611 86.4618 11.2614 86.9443C10.6687 87.4267 10.0829 87.9988 9.51774 88.6742C8.95259 89.3496 8.44257 90.094 8.00147 90.9141C7.56038 91.7343 7.20199 92.6165 6.9332 93.5607C6.6644 94.5049 6.52656 95.4836 6.52656 96.4967C6.52656 97.3583 6.60927 98.1095 6.78157 98.7643C6.95387 99.4121 7.14685 99.9635 7.36051 100.405C7.57416 100.846 7.78093 101.19 7.97391 101.432C8.16689 101.673 8.29094 101.824 8.34608 101.879C8.43568 101.969 8.46325 102.072 8.42879 102.183C8.39433 102.3 8.28405 102.355 8.09796 102.355C8.02904 102.355 7.81539 102.334 7.44321 102.3C7.07104 102.259 6.62305 102.169 6.09236 102.017C5.56166 101.866 5.0034 101.645 4.40379 101.342C3.81106 101.039 3.25969 100.618 2.74968 100.088C2.23966 99.55 1.81924 98.8814 1.48153 98.075C1.14381 97.2687 0.978401 96.29 0.978401 95.1321C0.978401 93.4987 1.46085 91.9962 2.42575 90.6178C3.39064 89.2393 4.73461 88.047 6.46453 87.0339C8.18756 86.0276 10.2414 85.235 12.6261 84.6699C15.0108 84.1047 17.6229 83.8152 20.4693 83.8152H34.3638C34.4397 83.8152 34.5017 83.8359 34.5568 83.8842C34.6051 83.9255 34.6395 83.9807 34.6533 84.0427C34.6671 84.1047 34.6533 84.1598 34.6189 84.215C34.5775 84.2701 34.5086 84.3115 34.3983 84.3459C34.288 84.3804 34.0951 84.4355 33.8263 84.5182C33.5575 84.6009 33.2956 84.7457 33.0406 84.9455C32.7855 85.1523 32.5857 85.4211 32.434 85.7657C32.2824 86.1103 32.2893 86.5514 32.4409 87.089C32.5512 87.5163 32.7097 88.0332 32.9096 88.6328C33.1164 89.2325 33.3369 89.8734 33.5781 90.5626C33.8194 91.2449 34.0744 91.9411 34.3294 92.6578C34.5913 93.3677 34.8394 94.0431 35.0806 94.6841C35.3218 95.3251 35.5424 95.904 35.7423 96.4209C35.9421 96.9378 36.1007 97.3445 36.2247 97.6477C36.2592 97.7442 36.3143 97.7925 36.3901 97.7856C36.4659 97.7856 36.5142 97.7304 36.5418 97.6477C36.652 97.3376 36.8105 96.9034 37.0104 96.3382C37.2172 95.7731 37.4377 95.1459 37.6858 94.4498C37.934 93.7537 38.1959 93.0231 38.4715 92.2512C38.7472 91.4793 39.0091 90.728 39.2641 90.0044C39.5191 89.2738 39.7466 88.5984 39.9534 87.9712C40.1601 87.344 40.3186 86.8271 40.4427 86.4136C40.553 86.0138 40.5461 85.6899 40.4289 85.4349C40.3049 85.1799 40.1325 84.98 39.9051 84.8284C39.6777 84.6768 39.4364 84.5734 39.1745 84.5045C38.9126 84.4355 38.7059 84.3804 38.5405 84.339C38.444 84.3184 38.3751 84.277 38.3406 84.215C38.3061 84.153 38.2992 84.0909 38.3061 84.0358C38.3199 83.9738 38.3475 83.9255 38.3957 83.8773C38.444 83.8359 38.5129 83.8083 38.6025 83.8083H44.7227C44.7985 83.8083 44.8605 83.829 44.9157 83.8773C44.9639 83.9186 44.9984 83.9738 45.0053 84.0358C45.0191 84.0978 45.0053 84.153 44.9639 84.2081C44.9226 84.2632 44.8605 84.3046 44.7709 84.3253C44.1782 84.4769 43.6406 84.7181 43.172 85.0351C42.7033 85.3522 42.3242 85.8484 42.0417 86.5101C41.89 86.8616 41.6833 87.3716 41.4214 88.0332C41.1595 88.6949 40.8631 89.453 40.5254 90.3145C40.1877 91.176 39.8293 92.1065 39.4502 93.1127C39.0712 94.119 38.6783 95.139 38.2855 96.1866C37.8857 97.2342 37.4998 98.268 37.1138 99.2949C36.7278 100.322 36.3694 101.287 36.0317 102.19C35.694 103.093 35.3908 103.913 35.1151 104.643C34.8394 105.374 34.6189 105.967 34.4534 106.408C34.3983 106.532 34.3156 106.601 34.1984 106.614C34.0813 106.628 33.9986 106.566 33.9434 106.421C33.8538 106.16 33.7229 105.767 33.5368 105.257C33.3576 104.747 33.1439 104.161 32.9096 103.506C32.6753 102.851 32.4203 102.141 32.1515 101.39C31.8827 100.632 31.6139 99.8808 31.352 99.1295C31.0901 98.3783 30.8282 97.6546 30.5732 96.9516C30.3182 96.2486 30.0976 95.6283 29.9046 95.0908C29.7117 94.5532 29.5531 94.1121 29.4222 93.7675C29.2981 93.4229 29.2292 93.2368 29.2154 93.2023C29.1741 93.1127 29.1189 93.0783 29.05 93.0851C28.9811 93.0989 28.926 93.1541 28.8846 93.2506C28.5676 94.0638 28.2436 94.9047 27.9197 95.7731C27.5958 96.6415 27.2718 97.4961 26.9548 98.3507C26.6378 99.2054 26.3207 100.032 26.0175 100.839C25.7142 101.645 25.4317 102.396 25.1766 103.099C24.9147 103.802 24.6804 104.436 24.4668 105.002C24.2531 105.567 24.0808 106.035 23.943 106.401C23.8878 106.525 23.8051 106.594 23.6879 106.607C23.5708 106.621 23.4881 106.559 23.4329 106.415C23.2882 106.008 23.1021 105.463 22.8609 104.788C22.6266 104.113 22.3578 103.348 22.0614 102.5C21.765 101.652 21.4411 100.735 21.1034 99.7636C20.7588 98.7849 20.4142 97.7994 20.0558 96.8C19.6974 95.8006 19.339 94.822 18.9875 93.8571C18.636 92.8922 18.2983 91.9893 17.9882 91.1554C17.6711 90.3145 17.3817 89.5702 17.1129 88.9154C16.8441 88.2607 16.6166 87.7438 16.4443 87.3716L16.4374 87.3647ZM26.0313 97.6339C26.1002 97.4548 26.1967 97.1929 26.3207 96.8482C26.4448 96.5036 26.5895 96.1177 26.7412 95.6904C26.8928 95.2631 27.0582 94.822 27.2236 94.3533C27.389 93.8846 27.5406 93.4366 27.6716 93.0024C27.8025 92.5682 27.9128 92.1823 27.9955 91.8308C28.0782 91.4793 28.1196 91.2036 28.1196 91.0037C28.1196 90.7074 28.0782 90.3834 27.9886 90.0388C27.899 89.6942 27.7956 89.3496 27.6647 89.0119C27.5406 88.6742 27.4097 88.364 27.2787 88.0746C27.1478 87.7851 27.0444 87.5508 26.9617 87.3647C26.7618 86.9236 26.5482 86.5376 26.3276 86.2137C26.1002 85.8898 25.8452 85.621 25.5695 85.4142C25.2869 85.2075 24.9768 85.0489 24.6253 84.9455C24.2807 84.8422 23.8809 84.787 23.4398 84.787C23.2055 84.787 22.9781 84.8284 22.7437 84.9042C22.5094 84.98 22.3164 85.111 22.1648 85.2833C22.0132 85.4625 21.9029 85.6968 21.8409 85.9932C21.7788 86.2895 21.8133 86.6548 21.9305 87.0821C22.0407 87.5094 22.1924 88.0263 22.3922 88.6259C22.5921 89.2256 22.8126 89.8665 23.0539 90.5557C23.2951 91.2381 23.5501 91.9342 23.812 92.6509C24.0739 93.3608 24.3289 94.0363 24.5701 94.6772C24.8114 95.3182 25.0319 95.8971 25.2318 96.414C25.4317 96.9309 25.5902 97.3376 25.7142 97.6408C25.7487 97.7373 25.8038 97.7856 25.8796 97.7787C25.9555 97.7787 26.0037 97.7235 26.0313 97.6408V97.6339Z" fill="white"/>
<path d="M48.0929 97.372C47.9138 97.372 47.831 97.4685 47.831 97.6546C47.831 98.778 47.9275 99.7429 48.1274 100.549C48.3273 101.356 48.6168 102.01 48.9958 102.527C49.3749 103.037 49.8504 103.416 50.4156 103.658C50.9807 103.899 51.6424 104.023 52.3936 104.023C52.9657 104.023 53.4757 103.961 53.9237 103.844C54.3717 103.727 54.7576 103.582 55.0885 103.423C55.4193 103.265 55.6881 103.113 55.9017 102.968C56.1085 102.824 56.267 102.734 56.3635 102.686C56.5151 102.617 56.6392 102.631 56.7288 102.727C56.8184 102.824 56.8184 102.961 56.7288 103.148C56.6943 103.216 56.6185 103.341 56.5082 103.534C56.3911 103.727 56.2257 103.947 56.0051 104.202C55.7846 104.457 55.5089 104.719 55.178 104.995C54.8472 105.27 54.4544 105.525 53.9926 105.753C53.5377 105.987 53.0139 106.173 52.4212 106.325C51.8285 106.476 51.1737 106.545 50.4432 106.545C49.3404 106.545 48.3411 106.373 47.452 106.022C46.5629 105.67 45.7979 105.167 45.1638 104.505C44.5297 103.844 44.0404 103.037 43.6889 102.093C43.3443 101.142 43.1651 100.074 43.1651 98.8814C43.1651 97.5787 43.3787 96.4278 43.8129 95.4215C44.2471 94.4153 44.8054 93.5744 45.5015 92.899C46.1976 92.2236 46.9833 91.7067 47.8655 91.3552C48.7477 91.0037 49.6437 90.8245 50.5603 90.8245C51.4218 90.8245 52.18 90.9416 52.8347 91.1829C53.4895 91.4172 54.0615 91.7273 54.5371 92.1064C55.0195 92.4855 55.4124 92.9128 55.7294 93.3814C56.0465 93.8501 56.2946 94.3188 56.4876 94.7805C56.6805 95.2423 56.8184 95.6765 56.8942 96.09C56.97 96.4967 57.0114 96.8206 57.0114 97.0687C57.0114 97.179 56.9769 97.2548 56.9011 97.3031C56.8322 97.3444 56.7357 97.372 56.6116 97.372H48.0929ZM47.9138 96.283C47.8931 96.4278 47.9551 96.4967 48.1136 96.4967C48.1481 96.4967 48.2584 96.4967 48.4444 96.4898C48.6305 96.4898 48.858 96.476 49.1337 96.4622C49.4025 96.4484 49.6919 96.4415 50.0021 96.4278C50.3122 96.414 50.6086 96.4071 50.8843 96.3933C51.1668 96.3795 51.4081 96.3726 51.6148 96.3657C51.8216 96.3657 51.9456 96.3519 52.0008 96.3382C52.18 96.3244 52.3592 96.2486 52.5522 96.1038C52.7451 95.9591 52.8416 95.711 52.8416 95.3595C52.8416 95.0424 52.8003 94.6703 52.7107 94.2498C52.6211 93.8294 52.4832 93.4366 52.2903 93.0575C52.0973 92.6853 51.8492 92.3683 51.5528 92.1064C51.2564 91.8445 50.8911 91.7204 50.4638 91.7204C50.1192 91.7204 49.8229 91.81 49.5679 91.9961C49.3129 92.1753 49.0992 92.4165 48.9131 92.706C48.7339 92.9955 48.5823 93.3194 48.4582 93.6709C48.3342 94.0224 48.2377 94.367 48.1619 94.7047C48.0861 95.0424 48.024 95.3526 47.9896 95.6283C47.9482 95.9108 47.9275 96.1245 47.9138 96.2623V96.283Z" fill="white"/>
<path d="M76.3162 105.663C76.4058 105.684 76.4678 105.718 76.5092 105.774C76.5505 105.822 76.5643 105.877 76.5505 105.932C76.5367 105.987 76.5092 106.035 76.4609 106.084C76.4127 106.125 76.3438 106.153 76.2542 106.153H70.2649C70.1408 106.153 70.0444 106.125 69.9754 106.07C69.9065 106.015 69.8652 105.925 69.8652 105.808V104.354C69.8652 104.278 69.8376 104.23 69.7825 104.202C69.7273 104.175 69.6791 104.202 69.6308 104.25C69.5343 104.374 69.3689 104.561 69.1346 104.822C68.9003 105.084 68.5832 105.339 68.1835 105.601C67.7837 105.863 67.2875 106.084 66.6948 106.277C66.1021 106.47 65.4128 106.566 64.6203 106.566C63.7381 106.566 62.9661 106.449 62.3045 106.222C61.6429 105.994 61.0708 105.677 60.5953 105.277C60.1128 104.878 59.72 104.43 59.4029 103.92C59.0859 103.41 58.8378 102.879 58.6586 102.314C58.4794 101.749 58.3484 101.19 58.2795 100.625C58.2106 100.06 58.1692 99.5362 58.1692 99.0399C58.1692 97.8062 58.3209 96.6828 58.6241 95.6766C58.9274 94.6703 59.3822 93.8019 59.9956 93.0851C60.609 92.3684 61.3741 91.817 62.2976 91.431C63.2212 91.0451 64.3032 90.8521 65.5507 90.8521C66.2468 90.8521 66.8464 90.8934 67.3564 90.9761C67.8664 91.0589 68.28 91.1553 68.6108 91.2587C68.9416 91.3621 69.1897 91.4655 69.3551 91.5551C69.5205 91.6516 69.617 91.6998 69.6377 91.7136C69.6929 91.755 69.748 91.7687 69.7962 91.7481C69.8445 91.7274 69.872 91.686 69.872 91.6309V84.918C69.872 84.7732 69.8031 84.6836 69.6722 84.6561C69.6515 84.6561 69.5688 84.6423 69.431 84.6078C69.2931 84.5734 69.1346 84.5389 68.9623 84.4907C68.79 84.4424 68.6246 84.408 68.4729 84.3735C68.3213 84.339 68.2317 84.3184 68.1973 84.3046C68.0525 84.2701 67.9767 84.1943 67.9767 84.084C67.9767 83.9669 68.0525 83.891 68.2179 83.8428C68.6453 83.7463 69.1139 83.6085 69.617 83.4362C70.1202 83.2639 70.6233 83.0709 71.1333 82.8572C71.6433 82.6436 72.1327 82.4092 72.6082 82.1611C73.0838 81.913 73.5042 81.6649 73.8833 81.4099C73.9798 81.341 74.0831 81.3134 74.1865 81.3272C74.2899 81.341 74.345 81.4237 74.345 81.5753V103.54C74.345 103.982 74.4346 104.34 74.6069 104.609C74.7861 104.878 74.986 105.091 75.2134 105.236C75.4409 105.388 75.6614 105.491 75.8751 105.553C76.0887 105.615 76.2404 105.649 76.33 105.663H76.3162ZM69.8514 96.3038C69.8514 96.0281 69.8307 95.7248 69.7962 95.394C69.7549 95.0632 69.6929 94.7324 69.5964 94.3946C69.4999 94.0569 69.3758 93.733 69.2173 93.4297C69.0588 93.1196 68.8589 92.8439 68.6108 92.6027C68.3696 92.3615 68.0801 92.1616 67.7493 92.0169C67.4185 91.8652 67.0394 91.7963 66.6052 91.7963C65.9573 91.7963 65.3991 91.9617 64.9373 92.2925C64.4755 92.6234 64.0965 93.0782 63.8139 93.6572C63.5244 94.2361 63.3176 94.9184 63.1867 95.711C63.0557 96.5036 62.9868 97.3514 62.9868 98.268C62.9868 98.5092 62.9868 98.8401 62.9937 99.2536C63.0006 99.6671 63.0351 100.108 63.0902 100.584C63.1453 101.059 63.2487 101.535 63.3797 102.024C63.5106 102.507 63.7036 102.948 63.9586 103.334C64.2136 103.72 64.5375 104.037 64.9373 104.285C65.337 104.533 65.8264 104.657 66.4122 104.657C67.1634 104.657 67.7631 104.519 68.2179 104.243C68.6728 103.968 69.0174 103.63 69.2586 103.237C69.4999 102.837 69.6584 102.417 69.7411 101.969C69.8169 101.521 69.8583 101.128 69.8583 100.784V96.3175L69.8514 96.3038Z" fill="white"/>
<path d="M95.366 105.663C95.4556 105.684 95.5176 105.718 95.559 105.774C95.6003 105.822 95.6141 105.877 95.6003 105.932C95.5866 105.987 95.559 106.035 95.5107 106.084C95.4625 106.125 95.3936 106.153 95.304 106.153H89.3147C89.1907 106.153 89.0942 106.125 89.0253 106.07C88.9563 106.015 88.915 105.925 88.915 105.808V104.354C88.915 104.278 88.8874 104.23 88.8323 104.202C88.7771 104.175 88.7289 104.202 88.6806 104.25C88.5842 104.374 88.4187 104.561 88.1844 104.822C87.9501 105.084 87.633 105.339 87.2333 105.601C86.8336 105.863 86.3373 106.084 85.7446 106.277C85.1519 106.47 84.4627 106.566 83.6701 106.566C82.7879 106.566 82.016 106.449 81.3543 106.222C80.6927 105.994 80.1206 105.677 79.6451 105.277C79.1626 104.878 78.7698 104.43 78.4527 103.92C78.1357 103.41 77.8876 102.879 77.7084 102.314C77.5292 101.749 77.3982 101.19 77.3293 100.625C77.2604 100.06 77.219 99.5362 77.219 99.0399C77.219 97.8062 77.3707 96.6828 77.6739 95.6766C77.9772 94.6703 78.4321 93.8019 79.0455 93.0851C79.6589 92.3684 80.4239 91.817 81.3474 91.431C82.271 91.0451 83.353 90.8521 84.6005 90.8521C85.2966 90.8521 85.8962 90.8934 86.4062 90.9761C86.9163 91.0589 87.3298 91.1553 87.6606 91.2587C87.9914 91.3621 88.2395 91.4655 88.405 91.5551C88.5704 91.6516 88.6669 91.6998 88.6875 91.7136C88.7427 91.755 88.7978 91.7687 88.8461 91.7481C88.8943 91.7274 88.9219 91.686 88.9219 91.6309V84.918C88.9219 84.7732 88.853 84.6836 88.722 84.6561C88.7013 84.6561 88.6186 84.6423 88.4808 84.6078C88.3429 84.5734 88.1844 84.5389 88.0121 84.4907C87.8398 84.4424 87.6744 84.408 87.5228 84.3735C87.3711 84.339 87.2815 84.3184 87.2471 84.3046C87.1024 84.2701 87.0265 84.1943 87.0265 84.084C87.0265 83.9669 87.1024 83.891 87.2678 83.8428C87.6951 83.7463 88.1637 83.6085 88.6669 83.4362C89.17 83.2639 89.6731 83.0709 90.1831 82.8572C90.6931 82.6436 91.1825 82.4092 91.658 82.1611C92.1336 81.913 92.554 81.6649 92.9331 81.4099C93.0296 81.341 93.133 81.3134 93.2363 81.3272C93.3397 81.341 93.3949 81.4237 93.3949 81.5753V103.54C93.3949 103.982 93.4845 104.34 93.6568 104.609C93.836 104.878 94.0358 105.091 94.2633 105.236C94.4907 105.388 94.7113 105.491 94.9249 105.553C95.1386 105.615 95.2902 105.649 95.3798 105.663H95.366ZM88.9012 96.3038C88.9012 96.0281 88.8805 95.7248 88.8461 95.394C88.8047 95.0632 88.7427 94.7324 88.6462 94.3946C88.5497 94.0569 88.4256 93.733 88.2671 93.4297C88.1086 93.1196 87.9087 92.8439 87.6606 92.6027C87.4194 92.3615 87.1299 92.1616 86.7991 92.0169C86.4683 91.8652 86.0892 91.7963 85.655 91.7963C85.0071 91.7963 84.4489 91.9617 83.9871 92.2925C83.5253 92.6234 83.1463 93.0782 82.8637 93.6572C82.5742 94.2361 82.3675 94.9184 82.2365 95.711C82.1056 96.5036 82.0366 97.3514 82.0366 98.268C82.0366 98.5092 82.0366 98.8401 82.0435 99.2536C82.0504 99.6671 82.0849 100.108 82.14 100.584C82.1952 101.059 82.2985 101.535 82.4295 102.024C82.5604 102.507 82.7534 102.948 83.0084 103.334C83.2634 103.72 83.5874 104.037 83.9871 104.285C84.3869 104.533 84.8762 104.657 85.462 104.657C86.2133 104.657 86.8129 104.519 87.2678 104.243C87.7226 103.968 88.0672 103.63 88.3085 103.237C88.5497 102.837 88.7082 102.417 88.7909 101.969C88.8667 101.521 88.9081 101.128 88.9081 100.784V96.3175L88.9012 96.3038Z" fill="white"/>
<path d="M117.062 95.4147C117.159 95.5112 117.2 95.6353 117.2 95.7869C117.2 96.6691 117.2 97.5513 117.207 98.4335C117.207 99.3157 117.207 100.198 117.193 101.073C117.18 101.948 117.138 102.824 117.083 103.692C117.028 104.561 116.938 105.436 116.821 106.304C116.614 107.752 116.215 109.089 115.636 110.322C115.057 111.556 114.312 112.631 113.403 113.548C112.493 114.465 111.425 115.181 110.191 115.698C108.957 116.215 107.586 116.477 106.063 116.477C105.27 116.477 104.56 116.408 103.94 116.263C103.32 116.119 102.768 115.939 102.293 115.719C101.817 115.498 101.417 115.257 101.086 114.988C100.756 114.726 100.48 114.465 100.266 114.216C100.053 113.968 99.8872 113.748 99.7701 113.555C99.6529 113.362 99.5771 113.224 99.5289 113.134C99.4048 112.879 99.391 112.7 99.4737 112.59C99.5564 112.48 99.708 112.466 99.9286 112.542C100.039 112.576 100.197 112.617 100.397 112.673C100.604 112.728 100.838 112.783 101.1 112.831C101.362 112.879 101.659 112.921 101.976 112.955C102.293 112.99 102.623 113.003 102.954 113.003C104.126 113.003 105.236 112.817 106.29 112.452C107.345 112.08 108.282 111.556 109.102 110.874C109.922 110.191 110.598 109.357 111.121 108.379C111.645 107.4 111.955 106.297 112.059 105.084C112.073 105.015 112.059 104.974 112.01 104.947C111.969 104.919 111.921 104.933 111.88 104.988C111.438 105.484 110.887 105.877 110.232 106.173C109.578 106.47 108.799 106.614 107.91 106.614C106.221 106.614 104.677 106.318 103.271 105.718C101.865 105.119 100.652 104.306 99.6391 103.272C98.626 102.238 97.8334 101.018 97.2682 99.6258C96.7031 98.2336 96.4136 96.7311 96.4136 95.1184C96.4136 94.0501 96.5584 93.0163 96.8409 92.0169C97.1235 91.0176 97.537 90.0871 98.0677 89.2118C98.5984 88.3434 99.2325 87.5439 99.9768 86.8203C100.721 86.0966 101.548 85.4832 102.451 84.9663C103.354 84.4563 104.333 84.0565 105.38 83.7739C106.428 83.4914 107.517 83.3535 108.654 83.3535C109.591 83.3535 110.439 83.4293 111.204 83.5741C111.962 83.7257 112.624 83.8911 113.175 84.0703C113.727 84.2495 114.161 84.4218 114.485 84.5803C114.802 84.7388 114.981 84.8353 115.015 84.8698C115.146 84.9663 115.215 85.0834 115.215 85.2144V88.688C115.215 88.7638 115.195 88.8259 115.146 88.8672C115.098 88.9086 115.05 88.9361 114.995 88.9499C114.94 88.9637 114.884 88.9499 114.829 88.9155C114.774 88.881 114.733 88.8328 114.698 88.7638C114.492 88.2676 114.23 87.7576 113.92 87.2269C113.609 86.6962 113.217 86.2206 112.748 85.7864C112.272 85.3591 111.714 85.0007 111.059 84.725C110.412 84.4494 109.64 84.3115 108.757 84.3115C107.689 84.3115 106.772 84.5872 106.021 85.1455C105.27 85.7037 104.65 86.4619 104.167 87.4268C103.685 88.3917 103.34 89.522 103.12 90.8177C102.899 92.1134 102.789 93.4918 102.789 94.9598C102.789 96.4279 102.899 97.8201 103.12 99.1089C103.34 100.398 103.671 101.528 104.119 102.493C104.567 103.458 105.125 104.216 105.801 104.774C106.476 105.332 107.262 105.608 108.165 105.608C109.012 105.608 109.709 105.429 110.246 105.064C110.784 104.698 111.211 104.23 111.521 103.651C111.831 103.072 112.045 102.431 112.155 101.721C112.272 101.018 112.328 100.322 112.328 99.6396V98.3301C112.328 97.9993 112.259 97.7098 112.128 97.4548C111.997 97.1998 111.824 96.9861 111.618 96.8C111.411 96.614 111.177 96.4623 110.928 96.3383C110.68 96.2142 110.439 96.1108 110.198 96.035C109.964 95.9592 109.75 95.8972 109.564 95.8627C109.378 95.8214 109.24 95.8007 109.15 95.7869C109.054 95.7731 108.978 95.7387 108.93 95.6766C108.881 95.6146 108.861 95.5526 108.861 95.4974C108.861 95.4354 108.895 95.3803 108.95 95.332C109.006 95.2838 109.088 95.2562 109.198 95.2562H116.676C116.842 95.2562 116.973 95.3045 117.062 95.3941V95.4147Z" fill="white"/>
<path d="M136.657 105.663C136.746 105.684 136.808 105.718 136.85 105.773C136.891 105.822 136.905 105.877 136.891 105.932C136.877 105.987 136.85 106.035 136.801 106.084C136.753 106.125 136.684 106.153 136.595 106.153H130.605C130.481 106.153 130.385 106.125 130.316 106.07C130.247 106.015 130.206 105.925 130.206 105.808V104.829C129.744 105.291 129.144 105.698 128.4 106.042C127.662 106.387 126.746 106.566 125.657 106.566C124.754 106.566 123.996 106.47 123.382 106.27C122.769 106.07 122.266 105.808 121.859 105.477C121.46 105.146 121.149 104.767 120.936 104.333C120.722 103.906 120.564 103.458 120.474 102.996C120.378 102.534 120.322 102.072 120.309 101.618C120.295 101.163 120.281 100.735 120.281 100.336V93.8708C120.281 93.4297 120.191 93.0713 120.019 92.8025C119.84 92.5337 119.64 92.3201 119.413 92.1753C119.185 92.0237 118.965 91.9272 118.751 91.8721C118.537 91.8169 118.386 91.7756 118.296 91.7549C118.207 91.7411 118.144 91.7136 118.103 91.6584C118.062 91.6033 118.048 91.5481 118.062 91.493C118.076 91.4379 118.103 91.3896 118.151 91.3414C118.2 91.2931 118.269 91.2725 118.358 91.2725H124.347C124.609 91.2725 124.747 91.4172 124.747 91.6998V101.376C124.761 101.817 124.802 102.259 124.871 102.7C124.94 103.141 125.078 103.54 125.271 103.899C125.464 104.257 125.733 104.547 126.084 104.767C126.436 104.988 126.897 105.098 127.483 105.098C128.104 105.098 128.586 104.967 128.944 104.712C129.303 104.45 129.579 104.126 129.765 103.727C129.951 103.327 130.075 102.893 130.13 102.41C130.185 101.928 130.213 101.473 130.213 101.032V93.8708C130.213 93.4297 130.123 93.0713 129.951 92.8025C129.778 92.5337 129.572 92.3201 129.344 92.1753C129.117 92.0306 128.896 91.9272 128.683 91.8721C128.469 91.8169 128.317 91.7756 128.228 91.7549C128.138 91.7411 128.076 91.7136 128.035 91.6584C127.993 91.6033 127.98 91.5481 127.993 91.493C128.007 91.4379 128.035 91.3896 128.083 91.3414C128.131 91.3 128.2 91.2725 128.29 91.2725H134.279C134.541 91.2725 134.679 91.4172 134.679 91.6998V103.561C134.679 104.002 134.768 104.361 134.941 104.629C135.12 104.898 135.32 105.112 135.547 105.257C135.775 105.408 135.995 105.512 136.209 105.574C136.422 105.636 136.574 105.67 136.664 105.684L136.657 105.663Z" fill="white"/>
<path d="M142.722 97.372C142.543 97.372 142.46 97.4685 142.46 97.6546C142.46 98.778 142.556 99.7429 142.756 100.549C142.956 101.356 143.246 102.01 143.625 102.527C144.004 103.037 144.479 103.416 145.044 103.658C145.61 103.899 146.271 104.023 147.022 104.023C147.595 104.023 148.105 103.961 148.553 103.844C149.001 103.72 149.386 103.582 149.717 103.423C150.048 103.265 150.317 103.113 150.531 102.968C150.737 102.824 150.896 102.734 150.992 102.686C151.144 102.617 151.268 102.631 151.358 102.727C151.447 102.824 151.447 102.961 151.358 103.148C151.323 103.216 151.247 103.341 151.137 103.534C151.02 103.727 150.854 103.947 150.634 104.202C150.413 104.457 150.138 104.719 149.807 104.995C149.476 105.27 149.083 105.525 148.621 105.753C148.16 105.98 147.643 106.173 147.05 106.325C146.457 106.476 145.803 106.545 145.072 106.545C143.969 106.545 142.97 106.373 142.081 106.022C141.192 105.67 140.427 105.167 139.793 104.505C139.159 103.844 138.669 103.037 138.318 102.093C137.973 101.142 137.794 100.074 137.794 98.8814C137.794 97.5787 138.008 96.4278 138.442 95.4215C138.876 94.4153 139.434 93.5744 140.13 92.899C140.826 92.2236 141.612 91.7067 142.494 91.3552C143.377 91.0037 144.273 90.8245 145.189 90.8245C146.051 90.8245 146.809 90.9416 147.464 91.1829C148.118 91.4172 148.69 91.7273 149.166 92.1064C149.648 92.4855 150.041 92.9128 150.358 93.3814C150.675 93.8501 150.923 94.3188 151.116 94.7805C151.309 95.2423 151.447 95.6765 151.523 96.09C151.599 96.4967 151.64 96.8206 151.64 97.0687C151.64 97.179 151.606 97.2548 151.53 97.3031C151.461 97.3444 151.364 97.372 151.24 97.372H142.722ZM142.543 96.283C142.522 96.4278 142.584 96.4967 142.742 96.4967C142.777 96.4967 142.887 96.4967 143.073 96.4898C143.259 96.4898 143.487 96.476 143.762 96.4622C144.031 96.4484 144.321 96.4415 144.631 96.4278C144.941 96.414 145.237 96.4071 145.513 96.3933C145.796 96.3795 146.037 96.3726 146.244 96.3657C146.45 96.3657 146.574 96.3519 146.63 96.3382C146.809 96.3244 146.988 96.2486 147.181 96.1038C147.374 95.9591 147.47 95.711 147.47 95.3595C147.47 95.0424 147.429 94.6703 147.34 94.2498C147.25 93.8294 147.112 93.4366 146.919 93.0575C146.726 92.6784 146.478 92.3683 146.182 92.1064C145.885 91.8445 145.52 91.7204 145.093 91.7204C144.748 91.7204 144.452 91.81 144.197 91.9961C143.942 92.1753 143.728 92.4165 143.542 92.706C143.363 92.9955 143.211 93.3194 143.087 93.6709C142.963 94.0224 142.867 94.367 142.791 94.7047C142.715 95.0424 142.653 95.3526 142.618 95.6283C142.577 95.9108 142.556 96.1245 142.543 96.2623V96.283Z" fill="white"/>
<path d="M153.577 105.002C153.577 105.002 153.549 104.822 153.501 104.533C153.453 104.244 153.398 103.92 153.343 103.568C153.287 103.217 153.232 102.879 153.184 102.569C153.136 102.259 153.101 102.059 153.094 101.983C153.074 101.831 153.115 101.735 153.225 101.707C153.336 101.68 153.418 101.707 153.473 101.797C153.487 101.831 153.556 101.948 153.687 102.141C153.818 102.341 154.004 102.583 154.232 102.872C154.466 103.161 154.742 103.465 155.066 103.796C155.389 104.126 155.755 104.43 156.155 104.712C156.554 104.995 156.995 105.222 157.471 105.408C157.946 105.588 158.45 105.684 158.994 105.684C159.621 105.684 160.117 105.512 160.476 105.174C160.834 104.829 161.013 104.381 161.013 103.816C161.013 103.52 160.972 103.224 160.896 102.941C160.82 102.651 160.655 102.369 160.4 102.079C160.145 101.79 159.78 101.507 159.311 101.225C158.836 100.942 158.201 100.66 157.409 100.37C156.678 100.115 156.072 99.8119 155.576 99.4604C155.079 99.1089 154.68 98.7161 154.369 98.275C154.059 97.8408 153.839 97.3721 153.701 96.869C153.563 96.3659 153.494 95.8352 153.494 95.27C153.494 94.8427 153.57 94.3671 153.728 93.8571C153.88 93.3471 154.163 92.8647 154.562 92.4167C154.962 91.9687 155.514 91.5965 156.21 91.2933C156.906 90.99 157.795 90.8384 158.87 90.8384C159.552 90.8384 160.186 90.8935 160.772 91.0038C161.358 91.1141 161.868 91.2381 162.302 91.376C162.736 91.5138 163.088 91.6448 163.343 91.7619C163.605 91.886 163.75 91.948 163.784 91.9618C163.853 91.9963 163.887 92.0238 163.901 92.0445C163.915 92.0652 163.922 92.1065 163.936 92.1617C163.936 92.1823 163.963 92.334 164.018 92.6165C164.074 92.8991 164.129 93.2024 164.184 93.5332C164.239 93.864 164.294 94.1673 164.349 94.443C164.404 94.7186 164.432 94.8703 164.432 94.9047C164.453 95.015 164.418 95.0977 164.315 95.146C164.218 95.1942 164.129 95.1666 164.053 95.0564C163.901 94.8358 163.653 94.5394 163.322 94.1604C162.992 93.7882 162.592 93.416 162.116 93.0508C161.641 92.6855 161.117 92.3684 160.538 92.0996C159.959 91.8308 159.346 91.693 158.691 91.693C158.009 91.693 157.505 91.8722 157.188 92.2375C156.871 92.6028 156.706 93.0439 156.706 93.5608C156.706 93.8227 156.747 94.0846 156.823 94.3327C156.899 94.5808 157.064 94.822 157.319 95.0495C157.574 95.2838 157.94 95.5181 158.422 95.7525C158.904 95.9868 159.545 96.228 160.352 96.4692C161.965 96.9655 163.178 97.6409 164.005 98.4886C164.832 99.3364 165.245 100.432 165.245 101.783C165.245 102.465 165.128 103.099 164.901 103.678C164.666 104.257 164.308 104.76 163.825 105.181C163.343 105.601 162.723 105.939 161.971 106.18C161.22 106.421 160.331 106.546 159.29 106.546C158.422 106.546 157.643 106.483 156.968 106.353C156.292 106.228 155.713 106.084 155.245 105.932C154.776 105.78 154.411 105.629 154.142 105.491C153.873 105.353 153.722 105.27 153.68 105.236C153.66 105.215 153.639 105.181 153.625 105.14C153.611 105.098 153.598 105.043 153.584 104.988L153.577 105.002Z" fill="white"/>
<path d="M176.748 103.74C176.948 103.644 177.093 103.651 177.176 103.775C177.265 103.899 177.272 104.023 177.189 104.154C176.989 104.505 176.741 104.829 176.438 105.119C176.135 105.408 175.79 105.663 175.404 105.877C175.018 106.091 174.598 106.256 174.136 106.373C173.674 106.49 173.199 106.545 172.689 106.545C172.137 106.545 171.593 106.476 171.048 106.332C170.511 106.187 170.021 105.932 169.594 105.56C169.167 105.188 168.815 104.691 168.547 104.057C168.278 103.423 168.14 102.617 168.14 101.631V92.3339C168.14 92.2443 168.099 92.2029 168.009 92.2029H167.582C167.32 92.2029 167.154 92.1891 167.092 92.1547C167.03 92.1202 167.003 92.0513 167.003 91.941C167.003 91.7963 167.065 91.6446 167.196 91.4861C167.32 91.3276 167.478 91.2449 167.664 91.2449H168.03C168.105 91.2449 168.147 91.2035 168.147 91.1139V87.1579C168.147 86.9166 168.243 86.7788 168.443 86.7443C168.719 86.6892 169.015 86.6134 169.325 86.5238C169.642 86.4273 169.959 86.317 170.283 86.193C170.607 86.0689 170.931 85.9311 171.241 85.7794C171.558 85.6278 171.848 85.4762 172.11 85.3108C172.234 85.2419 172.344 85.235 172.448 85.2763C172.551 85.3177 172.606 85.4279 172.606 85.6071V91.1346C172.606 91.2104 172.647 91.2518 172.737 91.2518H175.845C176.107 91.2518 176.273 91.2656 176.335 91.3C176.397 91.3345 176.424 91.4034 176.424 91.5137C176.424 91.6584 176.348 91.8101 176.19 91.9686C176.038 92.1271 175.866 92.2098 175.68 92.2098H172.716C172.64 92.2098 172.599 92.2511 172.599 92.327V102.5C172.599 102.796 172.654 103.058 172.758 103.285C172.861 103.513 172.999 103.706 173.171 103.864C173.343 104.023 173.543 104.14 173.764 104.223C173.991 104.299 174.219 104.34 174.453 104.34C174.929 104.34 175.37 104.271 175.776 104.133C176.183 103.995 176.507 103.864 176.734 103.747L176.748 103.74Z" fill="white"/>
</g>
<defs>
<clipPath id="clip0_71_220">
<rect width="96.1658" height="60.9815" fill="white" transform="translate(40.9598)"/>
</clipPath>
<clipPath id="clip1_71_220">
<rect width="176.266" height="35.1498" fill="white" transform="translate(0.985291 81.3271)"/>
</clipPath>
</defs>
</svg>
